<svg width="25" height="25" viewBox="0 0 25 25" fill="none" xmlns="http://www.w3.org/2000/svg">
<g clip-path="url(#clip0_3772_2498)">
<path d="M7.5 24.5C8.60456 24.5 9.49999 23.6046 9.49999 22.5C9.49999 21.3954 8.60456 20.5 7.5 20.5C6.39543 20.5 5.5 21.3954 5.5 22.5C5.5 23.6046 6.39543 24.5 7.5 24.5Z" fill="white"/>
<path d="M17.5 24.5C18.6046 24.5 19.5 23.6046 19.5 22.5C19.5 21.3954 18.6046 20.5 17.5 20.5C16.3954 20.5 15.5 21.3954 15.5 22.5C15.5 23.6046 16.3954 24.5 17.5 24.5Z" fill="white"/>
<path d="M6.154 5.5L5.891 3.438C5.7955 2.62869 5.40638 1.88256 4.7974 1.34104C4.18842 0.799518 3.40192 0.500262 2.587 0.5L0.5 0.5V3.5H2.587C2.66881 3.50088 2.74739 3.53202 2.80759 3.58742C2.86779 3.64282 2.90534 3.71855 2.913 3.8L4.413 15.559C4.50761 16.3689 4.89637 17.1159 5.50547 17.6581C6.11456 18.2003 6.90156 18.4999 7.717 18.5H20.9L24.474 5.5H6.154ZM18.612 15.5H7.717C7.63523 15.4993 7.55665 15.4682 7.49657 15.4128C7.43648 15.3573 7.39921 15.2815 7.392 15.2L6.537 8.5H20.537L18.612 15.5Z" fill="white"/>
</g>
<defs>
<clipPath id="clip0_3772_2498">
<rect width="24" height="24" fill="white" transform="translate(0.5 0.5)"/>
</clipPath>
</defs>
</svg>
