<svg width="237" height="18" viewBox="0 0 237 18" fill="none" xmlns="http://www.w3.org/2000/svg">
<path d="M14.0331 6.1574C13.9634 6.0871 13.8804 6.0313 13.789 5.99323C13.6976 5.95515 13.5996 5.93555 13.5006 5.93555C13.4016 5.93555 13.3036 5.95515 13.2122 5.99323C13.1208 6.0313 13.0378 6.0871 12.9681 6.1574L9.53309 9.59239C9.46337 9.66268 9.38042 9.71848 9.28903 9.75656C9.19763 9.79463 9.0996 9.81424 9.00059 9.81424C8.90159 9.81424 8.80356 9.79463 8.71216 9.75656C8.62077 9.71848 8.53782 9.66268 8.46809 9.59239L5.03309 6.1574C4.96337 6.0871 4.88042 6.0313 4.78903 5.99323C4.69763 5.95515 4.5996 5.93555 4.50059 5.93555C4.40159 5.93555 4.30356 5.95515 4.21216 5.99323C4.12077 6.0313 4.03782 6.0871 3.96809 6.1574C3.82841 6.29792 3.75 6.48801 3.75 6.68614C3.75 6.88428 3.82841 7.07437 3.96809 7.21489L7.41059 10.6574C7.83247 11.0787 8.40434 11.3154 9.00059 11.3154C9.59685 11.3154 10.1687 11.0787 10.5906 10.6574L14.0331 7.21489C14.1728 7.07437 14.2512 6.88428 14.2512 6.68614C14.2512 6.48801 14.1728 6.29792 14.0331 6.1574Z" fill="white"/>
<path d="M30.1186 14V3.81818H36.5021V5.14062H31.6548V8.2429H36.169V9.56037H31.6548V12.6776H36.5618V14H30.1186ZM39.9213 9.46591V14H38.4348V6.36364H39.8617V7.60653H39.9561C40.1318 7.20218 40.4069 6.87737 40.7814 6.6321C41.1593 6.38684 41.6349 6.2642 42.2083 6.2642C42.7286 6.2642 43.1844 6.37358 43.5755 6.59233C43.9666 6.80777 44.2698 7.12926 44.4853 7.55682C44.7007 7.98437 44.8084 8.51302 44.8084 9.14276V14H43.3219V9.32173C43.3219 8.76823 43.1777 8.3357 42.8894 8.02415C42.601 7.70928 42.205 7.55185 41.7012 7.55185C41.3565 7.55185 41.0499 7.62642 40.7814 7.77557C40.5163 7.92472 40.3058 8.14347 40.15 8.43182C39.9976 8.71686 39.9213 9.06155 39.9213 9.46591ZM50.0037 17.0227C49.3972 17.0227 48.8752 16.9432 48.4377 16.7841C48.0035 16.625 47.6489 16.4145 47.3738 16.1527C47.0987 15.8909 46.8932 15.6042 46.7573 15.2926L48.035 14.7656C48.1245 14.9115 48.2438 15.0656 48.3929 15.228C48.5454 15.3937 48.7509 15.5346 49.0094 15.6506C49.2712 15.7666 49.6077 15.8246 50.0186 15.8246C50.5821 15.8246 51.0478 15.687 51.4157 15.4119C51.7836 15.1402 51.9675 14.706 51.9675 14.1094V12.608H51.873C51.7836 12.7704 51.6543 12.951 51.4853 13.1499C51.3195 13.3487 51.0909 13.5211 50.7992 13.6669C50.5075 13.8127 50.128 13.8857 49.6607 13.8857C49.0575 13.8857 48.5139 13.7448 48.03 13.4631C47.5494 13.178 47.1683 12.7588 46.8865 12.2053C46.6081 11.6484 46.4689 10.964 46.4689 10.152C46.4689 9.33996 46.6065 8.64394 46.8816 8.06392C47.16 7.4839 47.5411 7.03977 48.025 6.73153C48.5089 6.41998 49.0575 6.2642 49.6706 6.2642C50.1446 6.2642 50.5274 6.34375 50.8191 6.50284C51.1107 6.65862 51.3378 6.84091 51.5002 7.04972C51.6659 7.25852 51.7935 7.44247 51.883 7.60156H51.9924V6.36364H53.449V14.169C53.449 14.8253 53.2966 15.3639 52.9917 15.7848C52.6867 16.2057 52.2741 16.5173 51.7537 16.7195C51.2367 16.9216 50.6534 17.0227 50.0037 17.0227ZM49.9888 12.6527C50.4164 12.6527 50.7776 12.5533 51.0726 12.3544C51.3709 12.1522 51.5963 11.8639 51.7488 11.4893C51.9045 11.1115 51.9824 10.6591 51.9824 10.1321C51.9824 9.61837 51.9062 9.16596 51.7537 8.77486C51.6013 8.38376 51.3775 8.07884 51.0826 7.86009C50.7876 7.63802 50.423 7.52699 49.9888 7.52699C49.5414 7.52699 49.1685 7.64299 48.8702 7.875C48.5719 8.10369 48.3465 8.41525 48.1941 8.80966C48.0449 9.20407 47.9703 9.64489 47.9703 10.1321C47.9703 10.6326 48.0466 11.0717 48.199 11.4496C48.3515 11.8274 48.5769 12.1224 48.8752 12.3345C49.1768 12.5466 49.548 12.6527 49.9888 12.6527ZM56.9292 3.81818V14H55.4426V3.81818H56.9292ZM58.929 14V6.36364H60.4155V14H58.929ZM59.6797 5.18537C59.4212 5.18537 59.1991 5.09919 59.0135 4.92685C58.8312 4.75118 58.7401 4.54238 58.7401 4.30043C58.7401 4.05516 58.8312 3.84635 59.0135 3.67401C59.1991 3.49834 59.4212 3.41051 59.6797 3.41051C59.9382 3.41051 60.1586 3.49834 60.3409 3.67401C60.5265 3.84635 60.6193 4.05516 60.6193 4.30043C60.6193 4.54238 60.5265 4.75118 60.3409 4.92685C60.1586 5.09919 59.9382 5.18537 59.6797 5.18537ZM68.1376 8.22798L66.7903 8.46662C66.734 8.29427 66.6445 8.13021 66.5218 7.97443C66.4025 7.81865 66.2401 7.69105 66.0346 7.59162C65.8291 7.49219 65.5723 7.44247 65.264 7.44247C64.8431 7.44247 64.4918 7.53693 64.21 7.72585C63.9283 7.91146 63.7875 8.15175 63.7875 8.44673C63.7875 8.70194 63.8819 8.90743 64.0708 9.06321C64.2598 9.21899 64.5647 9.34659 64.9856 9.44602L66.1987 9.72443C66.9013 9.88684 67.425 10.1371 67.7697 10.4751C68.1144 10.8132 68.2868 11.2524 68.2868 11.7926C68.2868 12.25 68.1542 12.6577 67.889 13.0156C67.6272 13.3703 67.2609 13.6487 66.7903 13.8509C66.323 14.053 65.7811 14.1541 65.1646 14.1541C64.3095 14.1541 63.6118 13.9718 63.0716 13.6072C62.5313 13.2393 62.1999 12.7173 62.0772 12.0412L63.514 11.8224C63.6035 12.197 63.7875 12.4804 64.0659 12.6726C64.3443 12.8615 64.7072 12.956 65.1547 12.956C65.6419 12.956 66.0313 12.8549 66.323 12.6527C66.6146 12.4472 66.7605 12.197 66.7605 11.902C66.7605 11.6634 66.671 11.4628 66.492 11.3004C66.3163 11.138 66.0462 11.0154 65.6816 10.9325L64.389 10.6491C63.6764 10.4867 63.1494 10.2282 62.8081 9.87358C62.47 9.51894 62.301 9.06984 62.301 8.52628C62.301 8.07552 62.4269 7.68111 62.6788 7.34304C62.9307 7.00497 63.2787 6.74148 63.7228 6.55256C64.167 6.36032 64.6757 6.2642 65.2491 6.2642C66.0744 6.2642 66.724 6.44318 67.198 6.80114C67.6719 7.15578 67.9851 7.63139 68.1376 8.22798ZM71.4077 9.46591V14H69.9212V3.81818H71.3878V7.60653H71.4822C71.6612 7.19555 71.9347 6.86908 72.3026 6.62713C72.6705 6.38518 73.151 6.2642 73.7443 6.2642C74.268 6.2642 74.7254 6.37192 75.1165 6.58736C75.5109 6.80279 75.8158 7.12429 76.0312 7.55185C76.25 7.97609 76.3594 8.50639 76.3594 9.14276V14H74.8729V9.32173C74.8729 8.7616 74.7287 8.32741 74.4403 8.01918C74.152 7.70762 73.7509 7.55185 73.2372 7.55185C72.8859 7.55185 72.571 7.62642 72.2926 7.77557C72.0175 7.92472 71.8004 8.14347 71.6413 8.43182C71.4856 8.71686 71.4077 9.06155 71.4077 9.46591Z" fill="white"/>
<path fill-rule="evenodd" clip-rule="evenodd" d="M89 0H110.087V15.062H89V0Z" fill="url(#paint0_linear_3736_585)"/>
<path fill-rule="evenodd" clip-rule="evenodd" d="M89 0H110.087V1.00413H89V0ZM89 2.00827H110.087V3.0124H89V2.00827ZM89 4.01654H110.087V5.02067H89V4.01654ZM89 6.0248H110.087V7.02894H89V6.0248ZM89 8.03307H110.087V9.03721H89V8.03307ZM89 10.0413H110.087V11.0455H89V10.0413ZM89 12.0496H110.087V13.0537H89V12.0496ZM89 14.0579H110.087V15.062H89V14.0579Z" fill="url(#paint1_linear_3736_585)"/>
<path fill-rule="evenodd" clip-rule="evenodd" d="M89 0H98.0372V7.02894H89V0Z" fill="url(#paint2_linear_3736_585)"/>
<path fill-rule="evenodd" clip-rule="evenodd" d="M90.506 2.00804C90.2287 2.00804 90.0039 1.78326 90.0039 1.50597C90.0039 1.22869 90.2287 1.00391 90.506 1.00391C90.7833 1.00391 91.008 1.22869 91.008 1.50597C91.008 1.78326 90.7833 2.00804 90.506 2.00804ZM92.5142 2.00804C92.237 2.00804 92.0122 1.78326 92.0122 1.50597C92.0122 1.22869 92.237 1.00391 92.5142 1.00391C92.7915 1.00391 93.0163 1.22869 93.0163 1.50597C93.0163 1.78326 92.7915 2.00804 92.5142 2.00804ZM94.5225 2.00804C94.2452 2.00804 94.0204 1.78326 94.0204 1.50597C94.0204 1.22869 94.2452 1.00391 94.5225 1.00391C94.7998 1.00391 95.0246 1.22869 95.0246 1.50597C95.0246 1.78326 94.7998 2.00804 94.5225 2.00804ZM96.5308 2.00804C96.2535 2.00804 96.0287 1.78326 96.0287 1.50597C96.0287 1.22869 96.2535 1.00391 96.5308 1.00391C96.8081 1.00391 97.0328 1.22869 97.0328 1.50597C97.0328 1.78326 96.8081 2.00804 96.5308 2.00804ZM91.5101 3.01217C91.2328 3.01217 91.008 2.78739 91.008 2.51011C91.008 2.23282 91.2328 2.00804 91.5101 2.00804C91.7874 2.00804 92.0122 2.23282 92.0122 2.51011C92.0122 2.78739 91.7874 3.01217 91.5101 3.01217ZM93.5184 3.01217C93.2411 3.01217 93.0163 2.78739 93.0163 2.51011C93.0163 2.23282 93.2411 2.00804 93.5184 2.00804C93.7957 2.00804 94.0204 2.23282 94.0204 2.51011C94.0204 2.78739 93.7957 3.01217 93.5184 3.01217ZM95.5266 3.01217C95.2494 3.01217 95.0246 2.78739 95.0246 2.51011C95.0246 2.23282 95.2494 2.00804 95.5266 2.00804C95.8039 2.00804 96.0287 2.23282 96.0287 2.51011C96.0287 2.78739 95.8039 3.01217 95.5266 3.01217ZM96.5308 4.01631C96.2535 4.01631 96.0287 3.79153 96.0287 3.51424C96.0287 3.23696 96.2535 3.01217 96.5308 3.01217C96.8081 3.01217 97.0328 3.23696 97.0328 3.51424C97.0328 3.79153 96.8081 4.01631 96.5308 4.01631ZM94.5225 4.01631C94.2452 4.01631 94.0204 3.79153 94.0204 3.51424C94.0204 3.23696 94.2452 3.01217 94.5225 3.01217C94.7998 3.01217 95.0246 3.23696 95.0246 3.51424C95.0246 3.79153 94.7998 4.01631 94.5225 4.01631ZM92.5142 4.01631C92.237 4.01631 92.0122 3.79153 92.0122 3.51424C92.0122 3.23696 92.237 3.01217 92.5142 3.01217C92.7915 3.01217 93.0163 3.23696 93.0163 3.51424C93.0163 3.79153 92.7915 4.01631 92.5142 4.01631ZM90.506 4.01631C90.2287 4.01631 90.0039 3.79153 90.0039 3.51424C90.0039 3.23696 90.2287 3.01217 90.506 3.01217C90.7833 3.01217 91.008 3.23696 91.008 3.51424C91.008 3.79153 90.7833 4.01631 90.506 4.01631ZM91.5101 5.02044C91.2328 5.02044 91.008 4.79566 91.008 4.51838C91.008 4.24109 91.2328 4.01631 91.5101 4.01631C91.7874 4.01631 92.0122 4.24109 92.0122 4.51838C92.0122 4.79566 91.7874 5.02044 91.5101 5.02044ZM93.5184 5.02044C93.2411 5.02044 93.0163 4.79566 93.0163 4.51838C93.0163 4.24109 93.2411 4.01631 93.5184 4.01631C93.7957 4.01631 94.0204 4.24109 94.0204 4.51838C94.0204 4.79566 93.7957 5.02044 93.5184 5.02044ZM95.5266 5.02044C95.2494 5.02044 95.0246 4.79566 95.0246 4.51838C95.0246 4.24109 95.2494 4.01631 95.5266 4.01631C95.8039 4.01631 96.0287 4.24109 96.0287 4.51838C96.0287 4.79566 95.8039 5.02044 95.5266 5.02044ZM96.5308 6.02458C96.2535 6.02458 96.0287 5.79979 96.0287 5.52251C96.0287 5.24523 96.2535 5.02044 96.5308 5.02044C96.8081 5.02044 97.0328 5.24523 97.0328 5.52251C97.0328 5.79979 96.8081 6.02458 96.5308 6.02458ZM94.5225 6.02458C94.2452 6.02458 94.0204 5.79979 94.0204 5.52251C94.0204 5.24523 94.2452 5.02044 94.5225 5.02044C94.7998 5.02044 95.0246 5.24523 95.0246 5.52251C95.0246 5.79979 94.7998 6.02458 94.5225 6.02458ZM92.5142 6.02458C92.237 6.02458 92.0122 5.79979 92.0122 5.52251C92.0122 5.24523 92.237 5.02044 92.5142 5.02044C92.7915 5.02044 93.0163 5.24523 93.0163 5.52251C93.0163 5.79979 92.7915 6.02458 92.5142 6.02458ZM90.506 6.02458C90.2287 6.02458 90.0039 5.79979 90.0039 5.52251C90.0039 5.24523 90.2287 5.02044 90.506 5.02044C90.7833 5.02044 91.008 5.24523 91.008 5.52251C91.008 5.79979 90.7833 6.02458 90.506 6.02458Z" fill="url(#paint3_linear_3736_585)"/>
<path d="M162.586 0.5C160.905 0.5 159.261 0.998516 157.864 1.93251C156.466 2.8665 155.376 4.19402 154.733 5.74719C154.09 7.30036 153.921 9.00943 154.249 10.6583C154.577 12.3071 155.387 13.8217 156.576 15.0104C157.764 16.1992 159.279 17.0087 160.928 17.3367C162.577 17.6646 164.286 17.4963 165.839 16.853C167.392 16.2096 168.719 15.1202 169.653 13.7223C170.587 12.3245 171.086 10.6811 171.086 9C171.084 6.74641 170.187 4.58582 168.594 2.99228C167 1.39875 164.84 0.502437 162.586 0.5V0.5ZM168.919 8.29167H166.456C166.295 6.44638 165.742 4.65667 164.834 3.04221C165.932 3.45729 166.894 4.16684 167.614 5.09291C168.335 6.01899 168.786 7.12576 168.919 8.29167ZM160.946 10.4167H164.226C163.947 11.9005 163.39 13.3183 162.586 14.5958C161.781 13.3184 161.225 11.9005 160.946 10.4167ZM160.853 8.29167C161.051 6.55184 161.644 4.88024 162.586 3.40417C163.528 4.88018 164.121 6.55182 164.319 8.29167H160.853ZM160.338 3.04221C159.43 4.65667 158.877 6.44638 158.716 8.29167H156.253C156.385 7.12576 156.837 6.01899 157.558 5.09291C158.278 4.16684 159.24 3.45729 160.338 3.04221ZM156.375 10.4167H158.79C159.028 12.0112 159.553 13.5496 160.338 14.9578C159.355 14.5852 158.479 13.9759 157.787 13.1837C157.096 12.3916 156.611 11.4411 156.375 10.4167ZM164.834 14.9578C165.62 13.5497 166.144 12.0113 166.382 10.4167H168.797C168.561 11.4411 168.076 12.3916 167.384 13.1837C166.693 13.9759 165.817 14.5852 164.834 14.9578Z" fill="white"/>
<path d="M180.205 14.5V4.31818H181.741V13.1776H186.354V14.5H180.205ZM191.204 14.6541C190.488 14.6541 189.864 14.4901 189.33 14.1619C188.796 13.8338 188.382 13.3748 188.087 12.7848C187.792 12.1948 187.645 11.5054 187.645 10.7166C187.645 9.92448 187.792 9.23177 188.087 8.63849C188.382 8.04522 188.796 7.58452 189.33 7.25639C189.864 6.92827 190.488 6.7642 191.204 6.7642C191.92 6.7642 192.545 6.92827 193.078 7.25639C193.612 7.58452 194.026 8.04522 194.321 8.63849C194.616 9.23177 194.764 9.92448 194.764 10.7166C194.764 11.5054 194.616 12.1948 194.321 12.7848C194.026 13.3748 193.612 13.8338 193.078 14.1619C192.545 14.4901 191.92 14.6541 191.204 14.6541ZM191.209 13.4062C191.673 13.4062 192.058 13.2836 192.363 13.0384C192.667 12.7931 192.893 12.4666 193.039 12.0589C193.188 11.6513 193.262 11.2022 193.262 10.7116C193.262 10.2244 193.188 9.77699 193.039 9.36932C192.893 8.95833 192.667 8.62855 192.363 8.37997C192.058 8.13139 191.673 8.0071 191.209 8.0071C190.742 8.0071 190.354 8.13139 190.046 8.37997C189.741 8.62855 189.514 8.95833 189.365 9.36932C189.219 9.77699 189.146 10.2244 189.146 10.7116C189.146 11.2022 189.219 11.6513 189.365 12.0589C189.514 12.4666 189.741 12.7931 190.046 13.0384C190.354 13.2836 190.742 13.4062 191.209 13.4062ZM199.64 14.6541C198.901 14.6541 198.264 14.4867 197.731 14.152C197.2 13.8139 196.793 13.3482 196.508 12.755C196.223 12.1617 196.08 11.4822 196.08 10.7166C196.08 9.94105 196.226 9.25663 196.518 8.66335C196.809 8.06676 197.22 7.60109 197.751 7.26633C198.281 6.93158 198.906 6.7642 199.625 6.7642C200.205 6.7642 200.722 6.87192 201.176 7.08736C201.63 7.29948 201.996 7.59777 202.275 7.98224C202.556 8.36671 202.724 8.81581 202.777 9.32955H201.33C201.251 8.97159 201.068 8.66335 200.783 8.40483C200.501 8.14631 200.124 8.01705 199.65 8.01705C199.235 8.01705 198.872 8.12642 198.561 8.34517C198.253 8.56061 198.012 8.86884 197.84 9.26989C197.668 9.66761 197.581 10.1383 197.581 10.6818C197.581 11.2386 197.666 11.7192 197.835 12.1236C198.004 12.5279 198.243 12.8411 198.551 13.0632C198.863 13.2853 199.229 13.3963 199.65 13.3963C199.931 13.3963 200.187 13.3449 200.415 13.2422C200.647 13.1361 200.841 12.9853 200.997 12.7898C201.156 12.5942 201.267 12.3589 201.33 12.0838H202.777C202.724 12.5777 202.563 13.0185 202.295 13.4062C202.026 13.794 201.666 14.099 201.216 14.321C200.768 14.5431 200.243 14.6541 199.64 14.6541ZM206.589 14.669C206.105 14.669 205.667 14.5795 205.276 14.4006C204.885 14.2183 204.575 13.9548 204.347 13.6101C204.121 13.2654 204.009 12.8428 204.009 12.3423C204.009 11.9115 204.091 11.5568 204.257 11.2784C204.423 11 204.647 10.7796 204.928 10.6172C205.21 10.4548 205.525 10.3321 205.873 10.2493C206.221 10.1664 206.576 10.1035 206.937 10.0604C207.394 10.0073 207.765 9.96425 208.05 9.93111C208.335 9.89465 208.543 9.83665 208.672 9.7571C208.801 9.67756 208.866 9.5483 208.866 9.36932V9.33452C208.866 8.90033 208.743 8.56392 208.498 8.32528C208.256 8.08665 207.895 7.96733 207.414 7.96733C206.914 7.96733 206.519 8.07836 206.231 8.30043C205.946 8.51918 205.749 8.76278 205.639 9.03125L204.242 8.71307C204.408 8.24905 204.65 7.87453 204.968 7.58949C205.29 7.30114 205.659 7.09233 206.077 6.96307C206.494 6.83049 206.933 6.7642 207.394 6.7642C207.699 6.7642 208.022 6.80066 208.364 6.87358C208.708 6.94318 209.03 7.07244 209.328 7.26136C209.63 7.45028 209.877 7.72041 210.069 8.07173C210.261 8.41974 210.357 8.87216 210.357 9.42898V14.5H208.906V13.456H208.846C208.75 13.6482 208.606 13.8371 208.413 14.0227C208.221 14.2083 207.974 14.3625 207.673 14.4851C207.371 14.6077 207.01 14.669 206.589 14.669ZM206.912 13.4759C207.323 13.4759 207.674 13.3946 207.966 13.2322C208.261 13.0698 208.485 12.8577 208.637 12.5959C208.793 12.3307 208.871 12.0473 208.871 11.7457V10.7614C208.818 10.8144 208.715 10.8641 208.562 10.9105C208.413 10.9536 208.243 10.9917 208.05 11.0249C207.858 11.0547 207.671 11.0829 207.489 11.1094C207.306 11.1326 207.154 11.1525 207.031 11.169C206.743 11.2055 206.479 11.2668 206.241 11.353C206.005 11.4392 205.817 11.5634 205.674 11.7259C205.535 11.8849 205.465 12.0971 205.465 12.3622C205.465 12.7301 205.601 13.0085 205.873 13.1974C206.145 13.383 206.491 13.4759 206.912 13.4759ZM215.902 6.86364V8.05682H211.731V6.86364H215.902ZM212.849 5.03409H214.336V12.2578C214.336 12.5462 214.379 12.7633 214.465 12.9091C214.551 13.0516 214.662 13.1494 214.798 13.2024C214.937 13.2521 215.088 13.277 215.251 13.277C215.37 13.277 215.474 13.2687 215.564 13.2521C215.653 13.2356 215.723 13.2223 215.773 13.2124L216.041 14.4403C215.955 14.4735 215.832 14.5066 215.673 14.5398C215.514 14.5762 215.315 14.5961 215.077 14.5994C214.685 14.6061 214.321 14.5365 213.983 14.3906C213.645 14.2448 213.371 14.0194 213.162 13.7145C212.954 13.4096 212.849 13.0268 212.849 12.5661V5.03409ZM217.546 14.5V6.86364H219.033V14.5H217.546ZM218.297 5.68537C218.038 5.68537 217.816 5.59919 217.631 5.42685C217.448 5.25118 217.357 5.04238 217.357 4.80043C217.357 4.55516 217.448 4.34635 217.631 4.17401C217.816 3.99834 218.038 3.91051 218.297 3.91051C218.555 3.91051 218.776 3.99834 218.958 4.17401C219.144 4.34635 219.237 4.55516 219.237 4.80043C219.237 5.04238 219.144 5.25118 218.958 5.42685C218.776 5.59919 218.555 5.68537 218.297 5.68537ZM224.249 14.6541C223.533 14.6541 222.908 14.4901 222.375 14.1619C221.841 13.8338 221.427 13.3748 221.132 12.7848C220.837 12.1948 220.689 11.5054 220.689 10.7166C220.689 9.92448 220.837 9.23177 221.132 8.63849C221.427 8.04522 221.841 7.58452 222.375 7.25639C222.908 6.92827 223.533 6.7642 224.249 6.7642C224.965 6.7642 225.59 6.92827 226.123 7.25639C226.657 7.58452 227.071 8.04522 227.366 8.63849C227.661 9.23177 227.809 9.92448 227.809 10.7166C227.809 11.5054 227.661 12.1948 227.366 12.7848C227.071 13.3748 226.657 13.8338 226.123 14.1619C225.59 14.4901 224.965 14.6541 224.249 14.6541ZM224.254 13.4062C224.718 13.4062 225.103 13.2836 225.407 13.0384C225.712 12.7931 225.938 12.4666 226.084 12.0589C226.233 11.6513 226.307 11.2022 226.307 10.7116C226.307 10.2244 226.233 9.77699 226.084 9.36932C225.938 8.95833 225.712 8.62855 225.407 8.37997C225.103 8.13139 224.718 8.0071 224.254 8.0071C223.787 8.0071 223.399 8.13139 223.091 8.37997C222.786 8.62855 222.559 8.95833 222.41 9.36932C222.264 9.77699 222.191 10.2244 222.191 10.7116C222.191 11.2022 222.264 11.6513 222.41 12.0589C222.559 12.4666 222.786 12.7931 223.091 13.0384C223.399 13.2836 223.787 13.4062 224.254 13.4062ZM230.955 9.96591V14.5H229.468V6.86364H230.895V8.10653H230.989C231.165 7.70218 231.44 7.37737 231.815 7.1321C232.192 6.88684 232.668 6.7642 233.241 6.7642C233.762 6.7642 234.218 6.87358 234.609 7.09233C235 7.30777 235.303 7.62926 235.518 8.05682C235.734 8.48437 235.842 9.01302 235.842 9.64276V14.5H234.355V9.82173C234.355 9.26823 234.211 8.8357 233.923 8.52415C233.634 8.20928 233.238 8.05185 232.734 8.05185C232.39 8.05185 232.083 8.12642 231.815 8.27557C231.549 8.42472 231.339 8.64347 231.183 8.93182C231.031 9.21686 230.955 9.56155 230.955 9.96591Z" fill="white"/>
<defs>
<linearGradient id="paint0_linear_3736_585" x1="310.412" y1="0" x2="310.412" y2="225.93" gradientUnits="userSpaceOnUse">
<stop stop-color="white"/>
<stop offset="1" stop-color="#F0F0F0"/>
</linearGradient>
<linearGradient id="paint1_linear_3736_585" x1="310.412" y1="0" x2="310.412" y2="225.93" gradientUnits="userSpaceOnUse">
<stop stop-color="#D02F44"/>
<stop offset="1" stop-color="#B12537"/>
</linearGradient>
<linearGradient id="paint2_linear_3736_585" x1="183.891" y1="0" x2="183.891" y2="105.434" gradientUnits="userSpaceOnUse">
<stop stop-color="#46467F"/>
<stop offset="1" stop-color="#3C3C6D"/>
</linearGradient>
<linearGradient id="paint3_linear_3736_585" x1="163.808" y1="1.00391" x2="163.808" y2="76.314" gradientUnits="userSpaceOnUse">
<stop stop-color="white"/>
<stop offset="1" stop-color="#F0F0F0"/>
</linearGradient>
</defs>
</svg>
