<svg width="18" height="18" viewBox="0 0 18 18" fill="none" xmlns="http://www.w3.org/2000/svg">
<path d="M11.2303 5.27094V2.27094C11.2303 2.07202 11.3093 1.88126 11.4499 1.7406C11.5906 1.59995 11.7813 1.52093 11.9803 1.52093C12.1792 1.52093 12.3699 1.59995 12.5106 1.7406C12.6512 1.88126 12.7303 2.07202 12.7303 2.27094V4.22919C13.2028 3.75369 16.256 0.684685 16.7 0.240685C16.7692 0.169052 16.8519 0.111916 16.9434 0.0726089C17.035 0.0333021 17.1334 0.0126124 17.233 0.0117471C17.3325 0.0108817 17.4313 0.029858 17.5235 0.0675687C17.6156 0.105279 17.6994 0.160969 17.7698 0.231389C17.8402 0.301808 17.8959 0.385547 17.9336 0.477719C17.9713 0.569892 17.9903 0.668651 17.9894 0.768236C17.9886 0.86782 17.9679 0.966235 17.9286 1.05774C17.8893 1.14924 17.8321 1.232 17.7605 1.30119C17.3165 1.74519 14.279 4.79994 13.8095 5.27094H15.7303C15.9292 5.27094 16.1199 5.34995 16.2606 5.49061C16.4012 5.63126 16.4803 5.82202 16.4803 6.02094C16.4803 6.21985 16.4012 6.41061 16.2606 6.55127C16.1199 6.69192 15.9292 6.77094 15.7303 6.77094H12.7303C12.3324 6.77094 11.9509 6.6129 11.6696 6.3316C11.3883 6.05029 11.2303 5.66876 11.2303 5.27094ZM17.3015 12.5752C17.7361 13.011 17.9802 13.6014 17.9802 14.2169C17.9802 14.8325 17.7361 15.4228 17.3015 15.8587L16.6175 16.6462C10.4743 22.5247 -4.47175 7.58319 1.3175 1.42119L2.18 0.671185C2.61623 0.248594 3.2013 0.014739 3.80863 0.020213C4.41596 0.025687 4.99671 0.27005 5.42525 0.700435C5.4485 0.722935 6.8375 2.52894 6.8375 2.52894C7.24844 2.96284 7.4771 3.53797 7.47626 4.13558C7.47542 4.7332 7.24516 5.30768 6.833 5.74044L5.9645 6.83244C6.44525 8.00021 7.15195 9.0615 8.04402 9.95537C8.93609 10.8492 9.99596 11.5581 11.1628 12.0412L12.2615 11.1674C12.6934 10.7542 13.2679 10.5232 13.8656 10.5223C14.4633 10.5215 15.0385 10.7509 15.4715 11.1629C15.4715 11.1629 17.2783 12.5527 17.3015 12.5752ZM16.2703 13.6657C16.2703 13.6657 14.4755 12.2842 14.4523 12.2617C14.2977 12.1085 14.089 12.0225 13.8714 12.0225C13.6538 12.0225 13.445 12.1085 13.2905 12.2617C13.2703 12.2812 11.7575 13.4872 11.7575 13.4872C11.6556 13.5683 11.5342 13.6215 11.4055 13.6415C11.2767 13.6615 11.145 13.6476 11.0233 13.6012C9.51082 13.0385 8.13705 12.1572 6.99507 11.017C5.85309 9.87684 4.96961 8.50447 4.4045 6.99294C4.3544 6.86953 4.33807 6.735 4.35718 6.60319C4.37629 6.47138 4.43016 6.34703 4.51325 6.24294C4.51325 6.24294 5.71925 4.73244 5.7395 4.71294C5.8927 4.55842 5.97866 4.34965 5.97866 4.13206C5.97866 3.91447 5.8927 3.7057 5.7395 3.55119C5.717 3.52869 4.3355 1.73243 4.3355 1.73243C4.17868 1.59182 3.97401 1.51651 3.76344 1.52195C3.55287 1.52738 3.35236 1.61316 3.203 1.76169L2.3405 2.51169C-1.891 7.59894 11.063 19.8344 15.5203 15.6239L16.2043 14.8357C16.3655 14.6877 16.4626 14.4826 16.475 14.2641C16.4873 14.0456 16.4138 13.8309 16.2703 13.6657Z" fill="white"/>
</svg>
