<svg width="19" height="18" viewBox="0 0 19 18" fill="none" xmlns="http://www.w3.org/2000/svg">
<g clip-path="url(#clip0_642_919)">
<path d="M14.6752 12.5832C15.8726 10.983 16.4194 8.98865 16.2055 7.00154C15.9915 5.01443 15.0328 3.18213 13.5222 1.87347C12.0117 0.564822 10.0614 -0.123018 8.06413 -0.0515859C6.06681 0.0198461 4.17071 0.845247 2.75749 2.25847C1.34427 3.67168 0.51887 5.56779 0.447438 7.56511C0.376006 9.56242 1.06385 11.5126 2.3725 13.0232C3.68115 14.5338 5.51345 15.4925 7.50056 15.7065C9.48767 15.9204 11.482 15.3736 13.0822 14.1762L16.9072 18.0012L18.5002 16.4112L14.6752 12.5832ZM8.37524 13.5012C7.26272 13.5012 6.17518 13.1713 5.25016 12.5532C4.32513 11.9352 3.60416 11.0566 3.17842 10.0288C2.75268 9.00098 2.64128 7.86998 2.85832 6.77883C3.07537 5.68769 3.61109 4.68541 4.39776 3.89874C5.18444 3.11207 6.18671 2.57634 7.27786 2.3593C8.369 2.14226 9.5 2.25365 10.5278 2.6794C11.5557 3.10514 12.4342 3.82611 13.0523 4.75113C13.6703 5.67616 14.0002 6.7637 14.0002 7.87622C13.9988 9.36763 13.4058 10.7976 12.3512 11.8522C11.2966 12.9067 9.86666 13.4998 8.37524 13.5012Z" fill="#0D2612"/>
</g>
<defs>
<clipPath id="clip0_642_919">
<rect width="18" height="18" fill="white" transform="translate(0.5)"/>
</clipPath>
</defs>
</svg>
