<svg width="19" height="18" viewBox="0 0 19 18" fill="none" xmlns="http://www.w3.org/2000/svg">
<g clip-path="url(#clip0_642_920)">
<path d="M16.25 18H14V14.25C14 13.8522 13.842 13.4706 13.5607 13.1893C13.2794 12.908 12.8978 12.75 12.5 12.75H6.5C6.10218 12.75 5.72064 12.908 5.43934 13.1893C5.15804 13.4706 5 13.8522 5 14.25V18H2.75V14.25C2.75119 13.2558 3.14666 12.3027 3.84966 11.5997C4.55267 10.8967 5.5058 10.5012 6.5 10.5H12.5C13.4942 10.5012 14.4473 10.8967 15.1503 11.5997C15.8533 12.3027 16.2488 13.2558 16.25 14.25V18Z" fill="#0D2612"/>
<path d="M9.5 9C8.60999 9 7.73996 8.73608 6.99994 8.24162C6.25991 7.74715 5.68314 7.04434 5.34254 6.22208C5.00195 5.39981 4.91283 4.49501 5.08647 3.6221C5.2601 2.74918 5.68869 1.94736 6.31802 1.31802C6.94736 0.688685 7.74918 0.260102 8.6221 0.0864683C9.49501 -0.0871652 10.3998 0.00194979 11.2221 0.342544C12.0443 0.683138 12.7471 1.25991 13.2416 1.99994C13.7361 2.73996 14 3.60999 14 4.5C13.9988 5.69311 13.5243 6.83701 12.6807 7.68067C11.837 8.52432 10.6931 8.99881 9.5 9ZM9.5 2.25C9.05499 2.25 8.61998 2.38196 8.24997 2.6292C7.87996 2.87643 7.59157 3.22783 7.42127 3.63896C7.25098 4.0501 7.20642 4.5025 7.29324 4.93896C7.38005 5.37541 7.59434 5.77632 7.90901 6.09099C8.22368 6.40566 8.62459 6.61995 9.06105 6.70677C9.49751 6.79359 9.94991 6.74903 10.361 6.57873C10.7722 6.40843 11.1236 6.12005 11.3708 5.75004C11.618 5.38002 11.75 4.94501 11.75 4.5C11.75 3.90326 11.5129 3.33097 11.091 2.90901C10.669 2.48705 10.0967 2.25 9.5 2.25Z" fill="#0D2612"/>
</g>
<defs>
<clipPath id="clip0_642_920">
<rect width="18" height="18" fill="white" transform="translate(0.5)"/>
</clipPath>
</defs>
</svg>
