<svg width="45" height="18" viewBox="0 0 45 18" fill="none" xmlns="http://www.w3.org/2000/svg">
<path d="M6.41211 0.65625H18.7754C19.3223 0.675781 19.7715 0.880859 20.123 1.27148C20.4941 1.66211 20.6797 2.13086 20.6797 2.67773C20.582 3.84961 19.9473 4.48438 18.7754 4.58203H7.4082C6.66602 4.62109 6.05078 4.9043 5.5625 5.43164C5.07422 5.95898 4.71289 6.56445 4.47852 7.24805C4.26367 7.91211 4.15625 8.5957 4.15625 9.29883C4.15625 10.002 4.26367 10.6953 4.47852 11.3789C4.71289 12.043 5.07422 12.6387 5.5625 13.166C6.05078 13.6934 6.66602 13.9766 7.4082 14.0156H16.3145C16.666 13.9961 16.8516 13.8008 16.8711 13.4297V11.7305C16.8516 11.3398 16.666 11.1445 16.3145 11.1445H8.81445C8.26758 11.1445 7.79883 10.959 7.4082 10.5879C7.03711 10.1973 6.85156 9.72852 6.85156 9.18164C6.85156 8.63477 7.03711 8.16602 7.4082 7.77539C7.79883 7.4043 8.26758 7.21875 8.81445 7.21875H18.834C19.3809 7.21875 19.8496 7.4043 20.2402 7.77539C20.5918 8.14648 20.7773 8.5957 20.7969 9.12305V9.18164V16.0371C20.7773 16.5645 20.5918 17.0039 20.2402 17.3555C19.8691 17.7266 19.4199 17.9219 18.8926 17.9414H6.41211C5.04492 17.8633 3.91211 17.3457 3.01367 16.3887C2.13477 15.4121 1.5 14.3086 1.10938 13.0781C0.738281 11.8477 0.552734 10.5879 0.552734 9.29883C0.552734 8.00977 0.748047 6.75 1.13867 5.51953C1.5293 4.28906 2.16406 3.19531 3.04297 2.23828C3.92188 1.26172 5.04492 0.734375 6.41211 0.65625ZM29.9961 0.65625H42.3594C42.9062 0.675781 43.3555 0.880859 43.707 1.27148C44.0781 1.66211 44.2637 2.13086 44.2637 2.67773C44.166 3.84961 43.5312 4.48438 42.3594 4.58203H30.9922C30.25 4.62109 29.6348 4.9043 29.1465 5.43164C28.6582 5.95898 28.2969 6.56445 28.0625 7.24805C27.8477 7.91211 27.7402 8.5957 27.7402 9.29883C27.7402 10.002 27.8477 10.6953 28.0625 11.3789C28.2969 12.043 28.6582 12.6387 29.1465 13.166C29.6348 13.6934 30.25 13.9766 30.9922 14.0156H39.8984C40.25 13.9961 40.4355 13.8008 40.4551 13.4297V11.7305C40.4355 11.3398 40.25 11.1445 39.8984 11.1445H32.3984C31.8516 11.1445 31.3828 10.959 30.9922 10.5879C30.6211 10.1973 30.4355 9.72852 30.4355 9.18164C30.4355 8.63477 30.6211 8.16602 30.9922 7.77539C31.3828 7.4043 31.8516 7.21875 32.3984 7.21875H42.418C42.9648 7.21875 43.4336 7.4043 43.8242 7.77539C44.1758 8.14648 44.3613 8.5957 44.3809 9.12305V9.18164V16.0371C44.3613 16.5645 44.1758 17.0039 43.8242 17.3555C43.4531 17.7266 43.0039 17.9219 42.4766 17.9414H29.9961C28.6289 17.8633 27.4961 17.3457 26.5977 16.3887C25.7188 15.4121 25.084 14.3086 24.6934 13.0781C24.3223 11.8477 24.1367 10.5879 24.1367 9.29883C24.1367 8.00977 24.332 6.75 24.7227 5.51953C25.1133 4.28906 25.748 3.19531 26.627 2.23828C27.5059 1.26172 28.6289 0.734375 29.9961 0.65625Z" fill="white"/>
</svg>
